<svg xmlns="http://www.w3.org/2000/svg" viewBox="0 0 400 400" width="100%" height="100%">
  <defs>
    <linearGradient id="sr-grad" x1="0%" y1="0%" x2="100%" y2="100%">
      <stop offset="0%" stop-color="#1e3a8a" />
      <stop offset="100%" stop-color="#1d4ed8" />
    </linearGradient>
    <linearGradient id="sr-gold" x1="0%" y1="0%" x2="100%" y2="100%">
      <stop offset="0%" stop-color="#fde047" />
      <stop offset="100%" stop-color="#f59e0b" />
    </linearGradient>
    <filter id="sr-shadow" x="-10%" y="-10%" width="120%" height="120%">
      <feDropShadow dx="0" dy="4" stdDeviation="6" flood-opacity="0.35"/>
    </filter>
  </defs>
  <!-- Outer Gold Rim -->
  <circle cx="200" cy="200" r="190" fill="#08132b" stroke="url(#sr-gold)" stroke-width="6" filter="url(#sr-shadow)"/>
  <circle cx="200" cy="200" r="176" fill="none" stroke="url(#sr-gold)" stroke-width="3" stroke-dasharray="6,4"/>

  <!-- Central Shield -->
  <path d="M200 65 L285 105 V220 C285 285 200 325 200 325 C200 325 115 285 115 220 V105 Z" fill="url(#sr-grad)" stroke="url(#sr-gold)" stroke-width="4"/>
  <path d="M200 80 L270 115 V215 C270 268 200 305 200 305 C200 305 130 268 130 215 V115 Z" fill="#040b1a" opacity="0.45"/>

  <!-- Fortress of Saulridge Ridge & Lightning Bolt of Power -->
  <path d="M175 140 H225 V185 H175 Z" fill="url(#sr-gold)"/>
  <rect x="170" y="130" width="12" height="15" fill="url(#sr-gold)"/>
  <rect x="194" y="130" width="12" height="15" fill="url(#sr-gold)"/>
  <rect x="218" y="130" width="12" height="15" fill="url(#sr-gold)"/>
  <!-- Lightning Bolt -->
  <polygon points="208,135 190,165 204,165 192,195 215,160 200,160" fill="#ffffff"/>

  <!-- Open Book at Base -->
  <path d="M160 240 Q200 230 200 245 Q200 230 240 240 V270 Q200 260 200 275 Q200 260 160 270 Z" fill="#ffffff" stroke="url(#sr-gold)" stroke-width="2"/>

  <!-- Arc Text -->
  <path id="sr-arc" d="M 55 200 A 145 145 0 0 1 345 200" fill="none"/>
  <text fill="#ffffff" font-family="Arial, sans-serif" font-size="17" font-weight="900" letter-spacing="1.5">
    <textPath href="#sr-arc" startOffset="50%" text-anchor="middle">SAULRIDGE SECONDARY</textPath>
  </text>

  <!-- Motto Ribbon -->
  <path d="M110 340 L140 325 L200 345 L260 325 L290 340 L275 365 L200 352 L125 365 Z" fill="#040b1a" stroke="url(#sr-gold)" stroke-width="2.5"/>
  <text x="200" y="353" fill="url(#sr-gold)" font-family="Arial, sans-serif" font-size="11.5" font-weight="800" text-anchor="middle" letter-spacing="1">KNOWLEDGE IS POWER</text>
</svg>