<svg xmlns="http://www.w3.org/2000/svg" viewBox="0 0 400 400" width="100%" height="100%">
  <defs>
    <linearGradient id="tf-grad" x1="0%" y1="0%" x2="100%" y2="100%">
      <stop offset="0%" stop-color="#1e1b4b" />
      <stop offset="100%" stop-color="#4338ca" />
    </linearGradient>
    <linearGradient id="tf-gold" x1="0%" y1="0%" x2="100%" y2="100%">
      <stop offset="0%" stop-color="#fde047" />
      <stop offset="100%" stop-color="#eab308" />
    </linearGradient>
    <filter id="tf-shadow" x="-10%" y="-10%" width="120%" height="120%">
      <feDropShadow dx="0" dy="4" stdDeviation="6" flood-opacity="0.35"/>
    </filter>
  </defs>
  <!-- Outer Gold Rim -->
  <circle cx="200" cy="200" r="190" fill="#0b0a1d" stroke="url(#tf-gold)" stroke-width="6" filter="url(#tf-shadow)"/>
  <circle cx="200" cy="200" r="176" fill="none" stroke="#991b1b" stroke-width="3" stroke-dasharray="6,4"/>

  <!-- Central Shield -->
  <path d="M200 65 L285 105 V220 C285 285 200 325 200 325 C200 325 115 285 115 220 V105 Z" fill="url(#tf-grad)" stroke="url(#tf-gold)" stroke-width="4"/>
  <path d="M200 80 L270 115 V215 C270 268 200 305 200 305 C200 305 130 268 130 215 V115 Z" fill="#090817" opacity="0.45"/>

  <!-- Mortarboard / Academic Cap -->
  <polygon points="200,120 250,140 200,160 150,140" fill="url(#tf-gold)"/>
  <polygon points="175,150 200,162 225,150 225,168 200,180 175,168" fill="#ffffff"/>
  <line x1="240" y1="145" x2="245" y2="175" stroke="#991b1b" stroke-width="2.5"/>
  <circle cx="245" cy="177" r="3.5" fill="#991b1b"/>

  <!-- University Quill & Scroll -->
  <path d="M170 210 Q200 195 230 210 V235 Q200 220 170 235 Z" fill="#f8fafc" stroke="url(#tf-gold)" stroke-width="1.5"/>
  <line x1="220" y1="185" x2="185" y2="245" stroke="url(#tf-gold)" stroke-width="3"/>

  <!-- Open Book of Higher Learning -->
  <path d="M160 250 Q200 240 200 255 Q200 240 240 250 V280 Q200 270 200 285 Q200 270 160 280 Z" fill="#ffffff" stroke="url(#tf-gold)" stroke-width="2"/>

  <!-- Arc Text -->
  <path id="tf-arc" d="M 55 200 A 145 145 0 0 1 345 200" fill="none"/>
  <text fill="#ffffff" font-family="Arial, sans-serif" font-size="18" font-weight="900" letter-spacing="2">
    <textPath href="#tf-arc" startOffset="50%" text-anchor="middle">TURFLOOP HIGH SCHOOL</textPath>
  </text>

  <!-- Motto Ribbon -->
  <path d="M105 340 L135 325 L200 345 L265 325 L295 340 L280 365 L200 352 L120 365 Z" fill="#090817" stroke="url(#tf-gold)" stroke-width="2.5"/>
  <text x="200" y="353" fill="url(#tf-gold)" font-family="Arial, sans-serif" font-size="11" font-weight="800" text-anchor="middle" letter-spacing="1">EDUCATION FOR PROGRESS</text>
</svg>